<svg width="35" height="72" viewBox="0 0 35 72" fill="none" xmlns="http://www.w3.org/2000/svg">
<path d="M30.315 66.8217C31.8281 67.399 33.3995 67.85 35 68.2125L34.6873 70.9994C32.631 70.5591 30.6303 69.955 28.7118 69.1844C28.4176 70.0973 27.2596 70.9511 25.9744 71.2035C24.3845 71.523 20.9078 70.0919 20.9078 70.0919C20.9078 70.0919 23.0595 67.9628 24.6521 67.2916C24.0029 66.9345 23.3881 66.5183 22.7627 66.1263C22.4421 67.0499 21.1966 67.85 19.8637 68.0165C18.2552 68.2179 14.8872 66.5291 14.8872 66.5291C14.8872 66.5291 17.7517 64.0643 19.3629 63.863C19.4318 63.8549 19.5007 63.871 19.5696 63.8657C18.7879 63.2454 18.0379 62.5903 17.3066 61.9084C16.8004 62.695 15.5576 63.2616 14.3069 63.2723C12.6851 63.2777 9.53172 61.2076 9.53172 61.2076C9.53172 61.2076 12.6613 59.0946 14.283 59.0839C14.3864 59.0812 14.4871 59.0973 14.5904 59.1026C13.8272 58.2247 13.1091 57.3199 12.4281 56.3775C11.7974 57.0782 10.4618 57.4165 9.20843 57.1749C7.61319 56.8661 4.91293 54.2134 4.91293 54.2134C4.91293 54.2134 8.38696 52.7555 9.97956 53.0643C10.1015 53.0858 10.2233 53.1234 10.3426 53.1583C9.77816 52.1783 9.26143 51.1715 8.7818 50.1405C8.02658 50.6909 6.66452 50.7634 5.49326 50.2908C3.98281 49.6894 1.81784 46.5776 1.81784 46.5776C1.81784 46.5776 5.49856 45.7963 7.00636 46.4004C7.13091 46.4487 7.2316 46.5373 7.35085 46.5991C6.99841 45.5761 6.69632 44.5424 6.43133 43.4846C5.60721 43.8202 4.375 43.7048 3.35214 43.149C1.92383 42.3677 0.132495 39.0169 0.132495 39.0169C0.132495 39.0169 3.87947 38.6786 5.30777 39.4599C5.45086 39.5378 5.56216 39.6532 5.69465 39.7445C5.49591 38.3913 5.37137 37.022 5.31837 35.6286C4.4227 35.8729 3.13219 35.4621 2.19677 34.6218C0.980466 33.5317 0 29.8534 0 29.8534C0 29.8534 3.72047 30.3957 4.93413 31.4885C5.08253 31.6227 5.19117 31.7919 5.32102 31.9449C5.40581 30.5004 5.58336 29.0828 5.82715 27.6867C4.91028 27.692 3.76817 26.9886 3.0527 25.9737C2.11198 24.6339 1.97948 20.8267 1.97948 20.8267C1.97948 20.8267 5.48266 22.2122 6.42073 23.5546C6.51878 23.6942 6.57177 23.8553 6.65392 24.0057C6.96131 22.9075 7.32435 21.8336 7.72449 20.7811C6.81292 20.6281 5.8033 19.7152 5.29187 18.5607C4.62409 17.0625 5.21767 13.3037 5.21767 13.3037C5.21767 13.3037 8.39226 15.3496 9.05739 16.8477C9.13159 17.0169 9.15809 17.1995 9.21108 17.3767C9.77551 16.2409 10.3982 15.1482 11.0687 14.0877C10.2339 13.7359 9.44163 12.7103 9.12894 11.5451C8.69965 9.96097 9.86561 6.33904 9.86561 6.33904C9.86561 6.33904 12.6851 8.86016 13.1118 10.4469C13.1647 10.6483 13.1647 10.8577 13.1912 11.0645C14.0631 9.94486 14.9905 8.87358 15.9763 7.85869C15.2211 7.34319 14.6593 6.12962 14.6142 4.89994C14.5533 3.25678 16.5036 0 16.5036 0C16.5036 0 18.6819 3.10643 18.7428 4.74958C18.7481 4.93753 18.7402 5.12547 18.7243 5.31341C19.5351 4.63413 20.3725 3.97902 21.2417 3.36686C21.4802 2.55871 22.1214 1.69417 23.0039 1.15719C24.3924 0.311448 28.1473 0.459117 28.1473 0.459117C28.1473 0.459117 26.5256 3.8931 25.137 4.74153C24.5223 5.11741 23.82 5.30536 23.1708 5.34832C22.5057 5.80475 21.8512 6.27461 21.2205 6.77668C22.9111 6.95925 25.6909 8.65611 25.6909 8.65611C25.6909 8.65611 22.6249 10.8631 21.0058 10.9222C19.7657 10.9651 18.507 10.463 17.9611 9.70859C17.2933 10.3879 16.6626 11.1047 16.0505 11.8377C17.7544 11.6659 20.7594 12.6459 20.7594 12.6459C20.7594 12.6459 18.2711 15.4999 16.705 15.9322C15.4834 16.2678 14.1346 16.0423 13.4456 15.4033C12.9501 16.1765 12.489 16.9739 12.0544 17.7901C13.6735 17.2907 16.9594 17.8036 16.9594 17.8036C16.9594 17.8036 14.9428 21.0201 13.4615 21.6886C12.3645 22.188 11.0554 22.2148 10.2604 21.7665C9.99281 22.4672 9.74902 23.1787 9.52642 23.9036C11.0024 23.0794 14.3625 22.9478 14.3625 22.9478C14.3625 22.9478 12.9925 26.4973 11.6702 27.445C10.6738 28.1619 9.37273 28.4465 8.50621 28.1431C8.33926 29.0962 8.20942 30.0655 8.12197 31.0428C9.43898 29.9393 12.5341 29.0828 12.5341 29.0828C12.5341 29.0828 11.9908 32.8524 10.9123 34.0794C10.1147 34.9896 8.93284 35.5588 8.02658 35.4809C8.06102 36.4609 8.12197 37.4328 8.23327 38.3887C9.18459 36.9845 12.1551 35.344 12.1551 35.344C12.1551 35.344 12.4837 39.1377 11.7126 40.5849C11.0952 41.7502 9.95836 42.5878 9.00969 42.604C9.21638 43.4524 9.43898 44.2954 9.70927 45.1251C10.3876 43.5974 13.329 41.4924 13.329 41.4924C13.329 41.4924 14.0949 45.219 13.496 46.7494C13.0588 47.8744 12.1525 48.8088 11.2807 49.0558C11.6331 49.8156 11.9988 50.562 12.4016 51.2896C12.7858 49.6706 15.29 47.0421 15.29 47.0421C15.29 47.0421 16.7315 50.5566 16.4241 52.1756C16.2042 53.3516 15.4993 54.4309 14.7017 54.8551C15.2184 55.5613 15.7537 56.2593 16.3208 56.9279C16.3473 55.2713 18.3533 52.1327 18.3533 52.1327C18.3533 52.1327 20.4361 55.3008 20.444 56.944C20.452 58.1602 19.9512 59.3819 19.2304 59.9403C19.8558 60.5203 20.497 61.0814 21.1622 61.613C21.1595 61.5808 21.1489 61.5566 21.1463 61.5244C20.9528 59.8893 22.617 56.4768 22.617 56.4768C22.617 56.4768 25.0469 59.3819 25.243 61.0089C25.3808 62.1312 25.0628 63.275 24.4984 63.9462C25.3172 64.4536 26.1546 64.9316 27.0185 65.3665C26.931 65.1302 26.8542 64.8886 26.8065 64.6389C26.4938 63.0253 27.9194 59.5 27.9194 59.5C27.9194 59.5 30.5482 62.2225 30.8555 63.8388C31.0702 64.945 30.8343 66.1075 30.315 66.8217Z" fill="#5E5E5E"/>
</svg>