<svg xmlns="http://www.w3.org/2000/svg" width="123" height="39" fill="none"><rect id="backgroundrect" width="100%" height="100%" x="0" y="0" fill="none" stroke="none"/>



<g class="currentLayer" style=""><title>Layer 1</title><path d="M15.288000019073486,2.463999809265136 H12.880000019073487 C12.805300019073487,2.463999809265136 12.749300019073486,2.463999809265136 12.712000019073486,2.463999809265136 V35.111999809265136 C12.749300019073486,36.08269980926514 13.104000019073487,36.92269980926514 13.776000019073486,37.63199980926514 C14.485300019073485,38.303999809265136 15.325300019073488,38.639999809265134 16.296000019073485,38.639999809265134 H17.024000019073487 V39.19999980926514 H1.907348634588857e-8 V38.639999809265134 H0.7280000190734865 C2.072000019073487,38.639999809265134 3.098670019073486,38.06129980926514 3.8080000190734866,36.90399980926514 C4.106670019073486,36.38129980926514 4.274670019073486,35.802699809265135 4.312000019073486,35.16799980926514 V4.087999809265138 C4.274670019073486,3.1172998092651376 3.9013300190734865,2.295999809265137 3.192000019073486,1.6239998092651362 C2.5200000190734864,0.9146998092651373 1.6986700190734867,0.5599998092651362 0.7280000190734865,0.5599998092651362 H1.907348634588857e-8 V-1.9073486257070726e-7 H19.208000019073488 C22.829300019073486,-1.9073486257070726e-7 25.890700019073485,0.7839998092651363 28.392000019073485,2.3519998092651377 C29.661300019073487,3.1359998092651367 30.66930001907349,4.237299809265135 31.416000019073486,5.655999809265136 C32.16270001907348,7.037299809265136 32.536000019073484,8.866699809265135 32.536000019073484,11.143999809265136 C32.536000019073484,13.383999809265138 31.752000019073485,15.549299809265136 30.184000019073487,17.639999809265134 C28.616000019073486,19.73069980926514 26.338700019073485,20.925299809265134 23.352000019073486,21.223999809265138 C25.517300019073485,21.933299809265137 27.421300019073485,23.575999809265134 29.064000019073486,26.151999809265135 C33.096000019073486,32.610699809265135 36.082700019073485,36.45599980926514 38.02400001907348,37.687999809265136 C38.994700019073484,38.28529980926513 40.20800001907349,38.60269980926514 41.664000019073484,38.639999809265134 V39.19999980926514 H36.176000019073484 C32.92800001907349,39.19999980926514 30.22130001907349,38.77069980926514 28.056000019073487,37.91199980926514 C25.928000019073487,37.053299809265134 24.248000019073487,35.54129980926513 23.016000019073488,33.37599980926514 C22.306700019073485,32.14399980926514 20.757300019073487,28.95199980926514 18.368000019073488,23.799999809265138 C17.322700019073487,21.522699809265134 16.053300019073486,20.27199980926514 14.560000019073485,20.047999809265136 V19.487999809265133 H16.296000019073485 C17.976000019073485,19.487999809265133 19.450700019073487,18.983999809265136 20.720000019073485,17.97599980926514 C22.026700019073488,16.967999809265137 22.904000019073486,15.325299809265136 23.352000019073486,13.047999809265136 C23.501300019073486,12.263999809265137 23.576000019073486,11.647999809265137 23.576000019073486,11.199999809265137 C23.576000019073486,8.138699809265137 22.960000019073487,5.935999809265137 21.728000019073487,4.591999809265136 C20.496000019073485,3.2106998092651367 18.909300019073488,2.501299809265138 16.968000019073486,2.463999809265136 C16.594700019073485,2.463999809265136 16.034700019073487,2.463999809265136 15.288000019073486,2.463999809265136 z" fill="white" id="svg_1" class=""/><path d="M59.05900001907349,25.660999809265135 H57.87600001907349 C57.746000019073485,24.40429980926514 56.97900001907349,23.775999809265137 55.575000019073485,23.775999809265137 C54.90770001907349,23.775999809265137 54.392000019073485,23.910299809265133 54.02800001907349,24.178999809265136 C53.664000019073484,24.44769980926514 53.48200001907349,24.824699809265134 53.48200001907349,25.309999809265136 C53.48200001907349,25.483299809265134 53.508000019073485,25.63499980926514 53.560000019073485,25.764999809265134 C53.612000019073484,25.894999809265137 53.698700019073485,26.011999809265134 53.82000001907349,26.115999809265134 C53.950000019073485,26.211299809265135 54.07130001907348,26.293699809265135 54.18400001907349,26.362999809265133 C54.296700019073484,26.43229980926514 54.47430001907349,26.501699809265133 54.71700001907349,26.57099980926514 C54.95970001907349,26.640299809265137 55.15470001907349,26.692299809265137 55.30200001907349,26.726999809265138 C55.44930001907348,26.752999809265134 55.679000019073484,26.80069980926514 55.99100001907349,26.86999980926514 C56.372300019073485,26.947999809265134 56.68870001907349,27.021699809265137 56.94000001907349,27.090999809265135 C57.19130001907349,27.15169980926514 57.49030001907349,27.25569980926514 57.837000019073486,27.40299980926514 C58.183700019073484,27.550299809265134 58.45670001907349,27.714999809265137 58.65600001907349,27.89699980926514 C58.86400001907349,28.070299809265137 59.04170001907349,28.30429980926514 59.18900001907349,28.598999809265138 C59.34500001907349,28.893699809265136 59.423000019073484,29.227299809265133 59.423000019073484,29.599999809265135 C59.423000019073484,30.249999809265134 59.24100001907349,30.79599980926514 58.877000019073485,31.237999809265133 C58.51300001907349,31.671299809265136 58.07100001907349,31.97469980926514 57.551000019073484,32.14799980926514 C57.03100001907349,32.321299809265135 56.454700019073485,32.407999809265135 55.822000019073485,32.407999809265135 C54.66070001907349,32.407999809265135 53.72900001907349,32.13499980926514 53.02700001907348,31.58899980926514 C52.33370001907349,31.034299809265136 51.987000019073484,30.219699809265137 51.987000019073484,29.144999809265137 H53.170000019073484 C53.19600001907349,29.933699809265136 53.460300019073486,30.50999980926514 53.96300001907348,30.873999809265136 C54.46570001907349,31.229299809265136 55.12000001907349,31.406999809265137 55.926000019073484,31.406999809265137 C56.558700019073484,31.406999809265137 57.10030001907349,31.276999809265135 57.551000019073484,31.016999809265137 C58.00170001907349,30.748299809265134 58.227000019073486,30.31499980926514 58.227000019073486,29.71699980926514 C58.227000019073486,29.439699809265136 58.16630001907349,29.205699809265134 58.045000019073484,29.014999809265134 C57.923700019073486,28.815699809265134 57.733000019073486,28.655299809265138 57.47300001907349,28.53399980926514 C57.21300001907348,28.403999809265137 56.953000019073485,28.299999809265138 56.69300001907349,28.221999809265135 C56.43300001907349,28.14399980926514 56.09070001907349,28.05729980926514 55.666000019073486,27.961999809265137 C55.60530001907349,27.95329980926514 55.56200001907349,27.94469980926514 55.536000019073484,27.935999809265134 C54.582700019073485,27.719299809265138 53.95870001907349,27.54599980926514 53.664000019073484,27.415999809265138 C52.762700019073485,27.025999809265137 52.31200001907349,26.354299809265136 52.31200001907349,25.400999809265137 C52.31200001907349,24.516999809265137 52.63700001907348,23.858299809265134 53.28700001907349,23.424999809265138 C53.945700019073485,22.982999809265138 54.738700019073484,22.761999809265134 55.666000019073486,22.761999809265134 C56.68000001907349,22.761999809265134 57.49030001907349,23.004699809265134 58.097000019073484,23.489999809265136 C58.70370001907349,23.975299809265138 59.024300019073486,24.69899980926514 59.05900001907349,25.660999809265135 zM63.14670001907349,22.943999809265136 V26.440999809265136 C63.64070001907349,25.695699809265136 64.37300001907349,25.322999809265134 65.34370001907348,25.322999809265134 C66.85170001907349,25.322999809265134 67.60570001907348,26.085699809265137 67.60570001907348,27.610999809265138 V32.19999980926514 H66.50070001907349 V27.870999809265136 C66.50070001907349,27.359699809265138 66.39240001907349,26.969699809265137 66.17570001907349,26.700999809265134 C65.96770001907349,26.423699809265138 65.58640001907348,26.284999809265138 65.03170001907348,26.284999809265138 C64.35570001907348,26.284999809265138 63.870400019073486,26.501699809265133 63.57570001907348,26.934999809265136 C63.28970001907349,27.36829980926514 63.14670001907349,27.987999809265133 63.14670001907349,28.793999809265138 V32.19999980926514 H62.04170001907349 V22.943999809265136 H63.14670001907349 zM76.12930001907348,25.49199980926514 V32.19999980926514 H75.10230001907348 V31.14699980926514 C74.53030001907348,31.970299809265136 73.75900001907348,32.38199980926514 72.78830001907349,32.38199980926514 C72.07770001907349,32.38199980926514 71.5273000190735,32.18699980926514 71.13730001907349,31.796999809265138 C70.74730001907349,31.406999809265137 70.55230001907348,30.84369980926514 70.55230001907348,30.106999809265133 V25.49199980926514 H71.65730001907349 V29.807999809265134 C71.65730001907349,30.336699809265134 71.75700001907349,30.73969980926514 71.95630001907348,31.016999809265137 C72.16430001907348,31.28569980926514 72.53270001907349,31.419999809265136 73.06130001907349,31.419999809265136 C74.37000001907349,31.419999809265136 75.0243000190735,30.613999809265138 75.0243000190735,29.001999809265136 V25.49199980926514 H76.12930001907348 zM80.12900001907349,25.49199980926514 V26.46699980926514 C80.42360001907349,26.068299809265135 80.74000001907349,25.77799980926514 81.07800001907349,25.595999809265138 C81.4160000190735,25.413999809265135 81.82760001907349,25.322999809265134 82.31300001907348,25.322999809265134 C83.23160001907348,25.322999809265134 83.85130001907349,25.708699809265134 84.1720000190735,26.479999809265138 C84.75260001907348,25.699999809265137 85.49360001907348,25.309999809265136 86.39500001907349,25.309999809265136 C87.08830001907349,25.309999809265136 87.61260001907348,25.504999809265136 87.96800001907349,25.894999809265137 C88.33200001907349,26.27629980926514 88.51400001907349,26.813699809265138 88.51400001907349,27.50699980926514 V32.19999980926514 H87.40900001907349 V27.974999809265135 C87.40900001907349,27.42029980926514 87.32230001907348,27.004299809265135 87.14900001907348,26.726999809265138 C86.97560001907348,26.440999809265136 86.61600001907348,26.297999809265136 86.07000001907349,26.297999809265136 C84.92600001907348,26.297999809265136 84.35400001907348,26.995699809265133 84.35400001907348,28.39099980926514 V32.19999980926514 H83.24900001907349 V27.89699980926514 C83.24900001907349,27.385699809265134 83.16230001907348,26.995699809265133 82.98900001907349,26.726999809265138 C82.82430001907349,26.449699809265134 82.49930001907349,26.310999809265134 82.01400001907349,26.310999809265134 C81.32930001907349,26.310999809265134 80.85260001907349,26.52329980926514 80.58400001907349,26.947999809265134 C80.32400001907348,27.363999809265138 80.19400001907348,27.93169980926514 80.19400001907348,28.650999809265137 V32.19999980926514 H79.08900001907348 V25.49199980926514 H80.12900001907349 zM97.03600001907348,25.49199980926514 V32.19999980926514 H96.00900001907348 V31.14699980926514 C95.43700001907348,31.970299809265136 94.66560001907348,32.38199980926514 93.69500001907349,32.38199980926514 C92.98430001907349,32.38199980926514 92.43400001907348,32.18699980926514 92.04400001907348,31.796999809265138 C91.6540000190735,31.406999809265137 91.45900001907349,30.84369980926514 91.45900001907349,30.106999809265133 V25.49199980926514 H92.56400001907349 V29.807999809265134 C92.56400001907349,30.336699809265134 92.66360001907348,30.73969980926514 92.86300001907348,31.016999809265137 C93.07100001907348,31.28569980926514 93.43930001907349,31.419999809265136 93.96800001907349,31.419999809265136 C95.27660001907348,31.419999809265136 95.93100001907348,30.613999809265138 95.93100001907348,29.001999809265136 V25.49199980926514 H97.03600001907348 zM101.03600001907348,25.49199980926514 V26.531999809265137 C101.59000001907349,25.717299809265135 102.35300001907349,25.309999809265136 103.32400001907348,25.309999809265136 C104.11200001907349,25.309999809265136 104.68000001907349,25.517999809265135 105.02700001907348,25.93399980926514 C105.38200001907349,26.341299809265138 105.56000001907348,26.943699809265134 105.56000001907348,27.740999809265134 V32.19999980926514 H104.45500001907348 V28.24799980926514 C104.45500001907348,27.918699809265135 104.44200001907349,27.662999809265138 104.4160000190735,27.480999809265136 C104.39800001907349,27.290299809265136 104.34600001907349,27.090999809265135 104.26000001907349,26.882999809265137 C104.17300001907348,26.666299809265134 104.02600001907349,26.510299809265135 103.81800001907348,26.41499980926514 C103.61000001907348,26.31969980926514 103.34100001907349,26.27199980926514 103.01200001907348,26.27199980926514 C101.73800001907348,26.27199980926514 101.10100001907348,27.077999809265137 101.10100001907348,28.68999980926514 V32.19999980926514 H99.99600001907349 V25.49199980926514 H101.03600001907348 zM109.05200001907349,26.258999809265134 C109.64200001907349,25.61769980926514 110.44300001907348,25.296999809265138 111.45700001907349,25.296999809265138 C112.47100001907349,25.296999809265138 113.26000001907349,25.604699809265135 113.82300001907349,26.21999980926514 C114.38700001907348,26.835299809265138 114.66800001907349,27.69769980926514 114.66800001907349,28.806999809265136 C114.66800001907349,29.942299809265137 114.38700001907348,30.826299809265137 113.82300001907349,31.458999809265137 C113.26000001907349,32.09169980926514 112.46700001907348,32.407999809265135 111.44400001907348,32.407999809265135 C110.42200001907348,32.407999809265135 109.62000001907349,32.09599980926514 109.03900001907348,31.471999809265135 C108.45900001907349,30.84799980926514 108.16800001907349,29.98129980926514 108.16800001907349,28.871999809265134 C108.16800001907349,27.771299809265138 108.46300001907349,26.900299809265135 109.05200001907349,26.258999809265134 zM112.96500001907349,26.934999809265136 C112.59300001907349,26.458299809265135 112.08100001907349,26.21999980926514 111.43100001907348,26.21999980926514 C110.78100001907349,26.21999980926514 110.26600001907349,26.458299809265135 109.88400001907348,26.934999809265136 C109.50300001907348,27.411699809265137 109.31200001907348,28.048699809265138 109.31200001907348,28.845999809265138 C109.31200001907348,29.669299809265134 109.49900001907349,30.31499980926514 109.87100001907349,30.782999809265135 C110.25300001907348,31.242299809265134 110.78100001907349,31.471999809265135 111.45700001907349,31.471999809265135 C112.10700001907348,31.471999809265135 112.61400001907349,31.237999809265133 112.97800001907349,30.769999809265137 C113.35100001907348,30.301999809265133 113.53700001907349,29.656299809265136 113.53700001907349,28.83299980926514 C113.53700001907349,28.03569980926514 113.34700001907349,27.40299980926514 112.96500001907349,26.934999809265136 zM116.63400001907348,25.49199980926514 H117.86900001907348 L119.76700001907349,31.120999809265136 L121.61300001907348,25.49199980926514 H122.77000001907349 L120.31300001907348,32.19999980926514 H119.13000001907349 L116.63400001907348,25.49199980926514 z" fill="white" id="svg_2" class=""/><path d="M52.50700001907349,5.9439998092651365 H56.57600001907348 C58.647300019073484,5.9439998092651365 59.68300001907349,6.797699809265136 59.68300001907349,8.504999809265136 C59.68300001907349,9.042299809265138 59.53570001907349,9.518999809265136 59.24100001907349,9.934999809265136 C58.95500001907349,10.342299809265135 58.573700019073485,10.615299809265135 58.097000019073484,10.753999809265135 C58.40900001907349,10.823299809265137 58.66030001907349,10.922999809265136 58.85100001907349,11.052999809265138 C59.04170001907349,11.182999809265137 59.180300019073485,11.364999809265136 59.267000019073485,11.598999809265138 C59.353700019073486,11.832999809265136 59.410000019073486,12.040999809265138 59.43600001907349,12.222999809265136 C59.462000019073486,12.404999809265135 59.48370001907349,12.673699809265138 59.50100001907349,13.028999809265137 C59.50100001907349,13.063699809265138 59.50530001907349,13.150299809265135 59.514000019073485,13.288999809265135 C59.52270001907349,13.418999809265138 59.52700001907348,13.509999809265135 59.52700001907348,13.561999809265135 C59.52700001907348,13.605299809265137 59.531300019073484,13.687699809265137 59.54000001907349,13.808999809265138 C59.55730001907349,13.930299809265136 59.570300019073485,14.021299809265138 59.57900001907348,14.081999809265138 C59.58770001907349,14.142699809265135 59.600700019073486,14.224999809265135 59.618000019073484,14.328999809265138 C59.63530001907348,14.432999809265137 59.657000019073486,14.519699809265138 59.68300001907349,14.588999809265136 C59.709000019073486,14.649699809265137 59.73930001907349,14.723299809265136 59.77400001907348,14.809999809265136 C59.808700019073484,14.887999809265136 59.847700019073486,14.961699809265138 59.89100001907349,15.030999809265136 C59.93430001907349,15.091699809265137 59.98200001907349,15.147999809265137 60.03400001907349,15.199999809265137 H58.630000019073485 C58.56930001907349,15.113299809265136 58.51730001907349,15.004999809265136 58.474000019073486,14.874999809265137 C58.439300019073485,14.744999809265138 58.41330001907349,14.593299809265137 58.39600001907348,14.419999809265136 C58.378700019073484,14.237999809265137 58.365700019073486,14.094999809265136 58.35700001907349,13.990999809265137 C58.348300019073484,13.878299809265137 58.33970001907349,13.717999809265137 58.331000019073485,13.509999809265135 C58.32230001907349,13.301999809265137 58.31800001907349,13.184999809265136 58.31800001907349,13.158999809265136 C58.274700019073485,12.370299809265138 58.11000001907349,11.845999809265138 57.82400001907349,11.585999809265136 C57.546700019073484,11.325999809265138 56.99200001907349,11.195999809265135 56.160000019073486,11.195999809265135 H53.72900001907349 V15.199999809265137 H52.50700001907349 V5.9439998092651365 zM53.72900001907349,6.983999809265136 V10.220999809265138 H56.03000001907348 C56.316000019073485,10.220999809265138 56.55430001907349,10.212299809265136 56.74500001907349,10.194999809265138 C56.94430001907349,10.177699809265135 57.161000019073484,10.138699809265137 57.395000019073485,10.077999809265137 C57.62900001907349,10.017299809265136 57.81530001907348,9.930699809265136 57.95400001907348,9.817999809265135 C58.101300019073484,9.705299809265135 58.222700019073486,9.544999809265136 58.31800001907349,9.336999809265137 C58.41330001907349,9.128999809265135 58.46100001907349,8.877699809265138 58.46100001907349,8.582999809265136 C58.46100001907349,7.958999809265137 58.27030001907349,7.538699809265136 57.889000019073485,7.321999809265137 C57.51630001907348,7.096699809265136 57.005000019073485,6.983999809265136 56.355000019073486,6.983999809265136 H53.72900001907349 zM63.04440001907349,9.258999809265138 C63.63370001907349,8.617699809265137 64.43540001907348,8.296999809265138 65.44940001907348,8.296999809265138 C66.46340001907349,8.296999809265138 67.25210001907348,8.604699809265135 67.8154000190735,9.219999809265136 C68.37870001907349,9.835299809265138 68.66040001907349,10.697699809265139 68.66040001907349,11.806999809265136 C68.66040001907349,12.942299809265137 68.37870001907349,13.826299809265137 67.8154000190735,14.458999809265137 C67.25210001907348,15.091699809265137 66.45910001907349,15.407999809265135 65.43640001907349,15.407999809265135 C64.41370001907349,15.407999809265135 63.61210001907348,15.095999809265138 63.03140001907349,14.471999809265135 C62.45070001907348,13.847999809265136 62.16040001907349,12.981299809265138 62.16040001907349,11.871999809265137 C62.16040001907349,10.771299809265138 62.455100019073484,9.900299809265135 63.04440001907349,9.258999809265138 zM66.95740001907349,9.934999809265136 C66.58470001907348,9.458299809265135 66.07340001907349,9.219999809265136 65.42340001907348,9.219999809265136 C64.77340001907349,9.219999809265136 64.25770001907348,9.458299809265135 63.876400019073486,9.934999809265136 C63.49510001907349,10.411699809265137 63.30440001907348,11.048699809265138 63.30440001907348,11.845999809265138 C63.30440001907348,12.669299809265137 63.490700019073486,13.314999809265135 63.86340001907348,13.782999809265135 C64.24470001907349,14.242299809265138 64.77340001907349,14.471999809265135 65.44940001907348,14.471999809265135 C66.09940001907349,14.471999809265135 66.60640001907349,14.237999809265137 66.97040001907348,13.769999809265137 C67.34310001907349,13.301999809265137 67.52940001907349,12.656299809265136 67.52940001907349,11.832999809265136 C67.52940001907349,11.035699809265136 67.33870001907349,10.402999809265136 66.95740001907349,9.934999809265136 zM72.31630001907348,8.491999809265138 V9.466999809265136 C72.61090001907348,9.068299809265138 72.92730001907348,8.777999809265136 73.26530001907349,8.595999809265138 C73.60330001907349,8.413999809265135 74.01490001907348,8.322999809265138 74.50030001907349,8.322999809265138 C75.41890001907349,8.322999809265138 76.03860001907348,8.708699809265138 76.35930001907349,9.479999809265138 C76.93990001907349,8.699999809265137 77.68090001907349,8.309999809265136 78.58230001907349,8.309999809265136 C79.27560001907348,8.309999809265136 79.79990001907349,8.504999809265136 80.1553000190735,8.894999809265137 C80.51930001907348,9.276299809265137 80.70130001907349,9.813699809265138 80.70130001907349,10.506999809265135 V15.199999809265137 H79.59630001907348 V10.974999809265135 C79.59630001907348,10.420299809265138 79.50960001907349,10.004299809265138 79.33630001907349,9.726999809265138 C79.16290001907349,9.440999809265136 78.80330001907349,9.297999809265136 78.25730001907348,9.297999809265136 C77.11330001907349,9.297999809265136 76.54130001907349,9.995699809265137 76.54130001907349,11.390999809265136 V15.199999809265137 H75.43630001907349 V10.896999809265136 C75.43630001907349,10.385699809265137 75.34960001907349,9.995699809265137 75.17630001907348,9.726999809265138 C75.01160001907348,9.449699809265137 74.68660001907348,9.310999809265137 74.20130001907349,9.310999809265137 C73.5166000190735,9.310999809265137 73.03990001907349,9.523299809265136 72.7713000190735,9.947999809265138 C72.51130001907349,10.363999809265138 72.38130001907349,10.931699809265137 72.38130001907349,11.650999809265137 V15.199999809265137 H71.27630001907349 V8.491999809265138 H72.31630001907348 zM89.60030001907349,14.315999809265136 V15.173999809265137 C89.3749000190735,15.260699809265137 89.12360001907349,15.303999809265136 88.84630001907348,15.303999809265136 C88.21360001907348,15.303999809265136 87.8886000190735,14.974699809265136 87.87130001907349,14.315999809265136 C87.23860001907349,15.026699809265136 86.42830001907349,15.381999809265135 85.44030001907349,15.381999809265135 C84.78160001907348,15.381999809265135 84.25730001907348,15.212999809265138 83.86730001907348,14.874999809265137 C83.48590001907348,14.536999809265136 83.29530001907348,14.073299809265137 83.29530001907348,13.483999809265136 C83.29530001907348,12.287999809265138 84.08830001907349,11.590299809265137 85.67430001907348,11.390999809265136 C85.77830001907348,11.373699809265137 85.92990001907349,11.356299809265138 86.12930001907348,11.338999809265136 C86.88330001907349,11.252299809265136 87.34690001907349,11.152699809265137 87.52030001907349,11.039999809265137 C87.71960001907348,10.901299809265137 87.81930001907348,10.662999809265138 87.81930001907348,10.324999809265137 C87.81930001907348,9.588299809265138 87.31230001907349,9.219999809265136 86.29830001907348,9.219999809265136 C85.77830001907348,9.219999809265136 85.38390001907348,9.328299809265136 85.11530001907349,9.544999809265136 C84.84660001907349,9.752999809265138 84.68630001907349,10.099699809265136 84.63430001907349,10.584999809265138 H83.55530001907348 C83.57260001907349,9.865699809265138 83.82830001907348,9.306699809265137 84.32230001907348,8.907999809265135 C84.81630001907348,8.509299809265137 85.49660001907348,8.309999809265136 86.36330001907349,8.309999809265136 C87.30790001907349,8.309999809265136 88.00990001907348,8.526699809265136 88.46930001907349,8.959999809265138 C88.61660001907349,9.098699809265138 88.72490001907349,9.280699809265137 88.79430001907349,9.505999809265138 C88.86360001907349,9.731299809265138 88.90260001907349,9.917699809265137 88.91130001907348,10.064999809265135 C88.91990001907348,10.203699809265135 88.92430001907348,10.415999809265138 88.92430001907348,10.701999809265136 C88.92430001907348,11.031299809265136 88.91560001907348,11.529699809265136 88.89830001907349,12.196999809265137 C88.8809000190735,12.864299809265137 88.87230001907349,13.362699809265138 88.87230001907349,13.691999809265138 C88.87230001907349,13.934699809265137 88.90260001907349,14.107999809265138 88.96330001907349,14.211999809265137 C89.03260001907348,14.307299809265135 89.15390001907349,14.354999809265138 89.32730001907349,14.354999809265138 C89.39660001907349,14.354999809265138 89.48760001907348,14.341999809265136 89.60030001907349,14.315999809265136 zM87.81930001907348,11.715999809265135 C87.74130001907349,11.776699809265136 87.65890001907349,11.828699809265135 87.57230001907348,11.871999809265137 C87.48560001907349,11.915299809265136 87.37290001907348,11.949999809265137 87.23430001907349,11.975999809265137 C87.10430001907349,12.001999809265136 87.01330001907348,12.023699809265135 86.96130001907349,12.040999809265138 C86.91790001907349,12.049699809265135 86.80530001907348,12.066999809265138 86.62330001907348,12.092999809265137 C86.44130001907348,12.110299809265136 86.34590001907348,12.118999809265137 86.33730001907348,12.118999809265137 C86.06860001907349,12.153699809265138 85.89090001907348,12.179699809265138 85.80430001907348,12.196999809265137 C85.72630001907349,12.205699809265138 85.57030001907349,12.240299809265135 85.33630001907349,12.300999809265136 C85.11090001907348,12.361699809265136 84.95060001907349,12.430999809265138 84.85530001907348,12.508999809265138 C84.75990001907348,12.586999809265137 84.66460001907349,12.703999809265138 84.56930001907348,12.859999809265137 C84.48260001907349,13.007299809265138 84.43930001907349,13.184999809265136 84.43930001907349,13.392999809265138 C84.43930001907349,13.739699809265137 84.55630001907349,14.012699809265136 84.79030001907348,14.211999809265137 C85.03290001907348,14.411299809265138 85.36230001907349,14.510999809265137 85.77830001907348,14.510999809265137 C86.30690001907348,14.510999809265137 86.77930001907349,14.354999809265138 87.19530001907349,14.042999809265137 C87.61130001907348,13.730999809265136 87.81930001907348,13.362699809265138 87.81930001907348,12.937999809265136 V11.715999809265135 zM92.98170001907349,8.491999809265138 V9.531999809265137 C93.53640001907348,8.717299809265135 94.29900001907349,8.309999809265136 95.26970001907348,8.309999809265136 C96.05840001907349,8.309999809265136 96.62600001907349,8.517999809265138 96.97270001907349,8.933999809265138 C97.32800001907349,9.341299809265138 97.50600001907348,9.943699809265137 97.50600001907348,10.740999809265137 V15.199999809265137 H96.40070001907348 V11.247999809265135 C96.40070001907348,10.918699809265135 96.38770001907349,10.662999809265138 96.36170001907348,10.480999809265136 C96.34440001907349,10.290299809265136 96.29240001907348,10.090999809265139 96.20570001907349,9.882999809265137 C96.11900001907348,9.666299809265137 95.97170001907348,9.510299809265138 95.76370001907348,9.414999809265137 C95.55570001907348,9.319699809265138 95.28700001907349,9.271999809265136 94.95770001907349,9.271999809265136 C93.68370001907348,9.271999809265136 93.04670001907348,10.077999809265137 93.04670001907348,11.689999809265135 V15.199999809265137 H91.94170001907348 V8.491999809265138 H92.98170001907349 z" fill="white" id="svg_3" class=""/></g></svg>